<svg xmlns="http://www.w3.org/2000/svg" viewBox="0 0 512 512">
  <defs>
    <linearGradient id="g" x1="0" y1="0" x2="1" y2="1">
      <stop offset="0%" stop-color="#3B82F6"/>
      <stop offset="100%" stop-color="#1D4ED8"/>
    </linearGradient>
  </defs>
  <rect width="512" height="512" rx="112" fill="url(#g)"/>
  <g fill="#ffffff">
    <rect x="120" y="168" width="14" height="176" rx="4"/>
    <rect x="146" y="168" width="7" height="176" rx="3"/>
    <rect x="165" y="168" width="20" height="176" rx="4"/>
    <rect x="199" y="168" width="7" height="176" rx="3"/>
    <rect x="218" y="168" width="14" height="176" rx="4"/>
    <rect x="244" y="168" width="20" height="176" rx="4"/>
    <rect x="278" y="168" width="7" height="176" rx="3"/>
    <rect x="297" y="168" width="14" height="176" rx="4"/>
    <rect x="323" y="168" width="7" height="176" rx="3"/>
    <rect x="342" y="168" width="20" height="176" rx="4"/>
    <rect x="376" y="168" width="14" height="176" rx="4"/>
  </g>
</svg>
